<?xml version="1.0" standalone="no"?><!DOCTYPE svg PUBLIC "-//W3C//DTD SVG 1.1//EN" "http://www.w3.org/Graphics/SVG/1.1/DTD/svg11.dtd"><svg t="1699231666947" class="icon" viewBox="0 0 1024 1024" version="1.1" xmlns="http://www.w3.org/2000/svg" p-id="18391" data-spm-anchor-id="a313x.search_index.0.i40.5e3f3a81laH7II" xmlns:xlink="http://www.w3.org/1999/xlink" width="200" height="200"><path d="M512 512m-512 0a512 512 0 1 0 1024 0 512 512 0 1 0-1024 0Z" fill="#F6F8FC" p-id="18392" data-spm-anchor-id="a313x.search_index.0.i38.5e3f3a81laH7II" class=""></path><path d="M538.947368 754.526316h-161.68421a53.894737 53.894737 0 0 1-53.894737-53.894737v-377.263158a53.894737 53.894737 0 0 1 53.894737-53.894737h161.68421a26.947368 26.947368 0 0 1 0 53.894737h-161.68421v377.263158h161.68421a26.947368 26.947368 0 0 1 0 53.894737z" fill="#FF6A00" p-id="18393" data-spm-anchor-id="a313x.search_index.0.i39.5e3f3a81laH7II" class="selected"></path><path d="M727.578947 538.947368h-242.526315a26.947368 26.947368 0 0 1-26.947369-26.947368 26.947368 26.947368 0 0 1 26.947369-26.947368h242.526315a26.947368 26.947368 0 0 1 26.947369 26.947368 26.947368 26.947368 0 0 1-26.947369 26.947368z" fill="#FF6A00" p-id="18394" data-spm-anchor-id="a313x.search_index.0.i44.5e3f3a81laH7II" class="selected"></path><path d="M632.427789 636.820211a24.252632 24.252632 0 0 1-17.138526-41.391158l84.48-84.48-84.48-84.48a24.252632 24.252632 0 0 1 34.304-34.304l101.618526 101.618526a24.252632 24.252632 0 0 1 0 34.304l-101.645473 101.645474a24.252632 24.252632 0 0 1-17.138527 7.087158z" fill="#FF6A00" p-id="18395" data-spm-anchor-id="a313x.search_index.0.i41.5e3f3a81laH7II" class="selected"></path></svg>