<?xml version="1.0" standalone="no"?><!DOCTYPE svg PUBLIC "-//W3C//DTD SVG 1.1//EN" "http://www.w3.org/Graphics/SVG/1.1/DTD/svg11.dtd"><svg t="1699258535044" class="icon" viewBox="0 0 1024 1024" version="1.1" xmlns="http://www.w3.org/2000/svg" p-id="4544" xmlns:xlink="http://www.w3.org/1999/xlink" width="200" height="200"><path d="M892.928 389.12l24.576 53.248c8.192 20.48 36.864 28.672 53.248 16.384 20.48-8.192 28.672-36.864 16.384-53.248l-36.864-73.728c-8.192-12.288-20.48-20.48-32.768-20.48l-114.688-4.096c-16.384 0-28.672 8.192-36.864 20.48l-98.304-69.632c4.096-12.288 8.192-28.672 8.192-40.96 0-81.92-65.536-143.36-143.36-143.36-81.92 0-147.456 65.536-147.456 143.36 0 45.056 20.48 81.92 49.152 106.496l-45.056 94.208c-12.288-4.096-24.576-4.096-36.864-4.096-90.112 0-163.84 73.728-163.84 163.84 0 53.248 24.576 102.4 65.536 131.072l-28.672 159.744H73.728c-24.576 0-45.056 20.48-45.056 45.056 0 24.576 20.48 45.056 45.056 45.056H696.32c24.576 0 45.056-20.48 45.056-45.056 0-24.576-20.48-45.056-45.056-45.056h-217.088l-28.672-159.744c40.96-28.672 65.536-77.824 65.536-131.072 0-49.152-20.48-90.112-53.248-122.88l49.152-98.304c8.192 0 16.384 4.096 24.576 4.096 36.864 0 69.632-12.288 94.208-36.864l98.304 69.632-12.288 20.48c-8.192 12.288-8.192 28.672-4.096 40.96l53.248 102.4c8.192 12.288 20.48 20.48 32.768 20.48l81.92 4.096c20.48 0 40.96-16.384 45.056-36.864 0-24.576-16.384-40.96-36.864-45.056H819.2l-28.672-57.344 36.864-57.344 65.536 4.096z" p-id="4545" fill="#FF6A00"></path></svg>