<?xml version="1.0" standalone="no"?><!DOCTYPE svg PUBLIC "-//W3C//DTD SVG 1.1//EN" "http://www.w3.org/Graphics/SVG/1.1/DTD/svg11.dtd"><svg t="1699258548746" class="icon" viewBox="0 0 1024 1024" version="1.1" xmlns="http://www.w3.org/2000/svg" p-id="4754" xmlns:xlink="http://www.w3.org/1999/xlink" width="200" height="200"><path d="M73.728 102.4h57.344v53.248c0 65.536 53.248 118.784 118.784 118.784h184.32v86.016c-65.536 24.576-110.592 90.112-110.592 163.84 0 12.288 0 24.576 4.096 36.864L221.184 614.4c-12.288 8.192-20.48 20.48-20.48 36.864V860.16c0 12.288 4.096 20.48 12.288 28.672l98.304 98.304c12.288 16.384 40.96 16.384 57.344 0 16.384-16.384 16.384-40.96 0-57.344l-86.016-86.016v-167.936l77.824-40.96c32.768 45.056 90.112 73.728 151.552 73.728s114.688-28.672 151.552-73.728l77.824 40.96v167.936L655.36 933.888c-16.384 16.384-16.384 40.96 0 57.344 16.384 16.384 40.96 16.384 57.344 0l98.304-98.304c8.192-8.192 12.288-16.384 12.288-28.672V655.36c0-16.384-8.192-28.672-20.48-36.864L696.32 565.248c4.096-12.288 4.096-24.576 4.096-40.96 0-73.728-45.056-139.264-106.496-167.936v-81.92H778.24c65.536 0 118.784-53.248 118.784-118.784V102.4h57.344c20.48 0 40.96-16.384 40.96-40.96 0-20.48-16.384-40.96-40.96-40.96H73.728c-20.48 0-40.96 16.384-40.96 40.96 0 20.48 16.384 40.96 40.96 40.96zM573.44 466.944c36.864 36.864 32.768 94.208-4.096 126.976-32.768 28.672-77.824 28.672-110.592 0-36.864-32.768-40.96-90.112-4.096-126.976 28.672-36.864 86.016-36.864 118.784 0z" p-id="4755" fill="#FF6A00"></path></svg>