<?xml version="1.0" standalone="no"?><!DOCTYPE svg PUBLIC "-//W3C//DTD SVG 1.1//EN" "http://www.w3.org/Graphics/SVG/1.1/DTD/svg11.dtd"><svg t="1699323098706" class="icon" viewBox="0 0 1024 1024" version="1.1" xmlns="http://www.w3.org/2000/svg" p-id="17614" xmlns:xlink="http://www.w3.org/1999/xlink" width="200" height="200"><path d="M621.357615 357.39648l-0.916015-0.169425-0.96256-0.02048h-175.429818v-26.273979h175.429818c1.06496 0 2.319825 0.080058 3.732945 0.229004 1.375884 0.147084 2.606545 0.344436 3.6864 0.579025l-5.54077 25.655855z m-177.308393 49.88928h97.492247v26.273978h-97.492247v-26.273978z" p-id="17615" fill="#FF6A00"></path><path d="M573.72672 555.553513c-1.560204 1.387055-3.287971 2.623302-5.144204 3.703156l-24.993047 14.544524c1.960495-10.044509 4.83328-21.211695 5.991331-31.245033 1.293964-10.616087-1.817135-20.729484-7.890385-28.491404-6.065804-7.750749-15.129135-13.196567-25.745222-14.490531-3.014284-0.36864-5.900102-0.400291-8.616495-0.126603-2.856029 0.284858-5.650618 0.899258-8.331636 1.798516l-39.17824 13.140713c5.974575-8.136145 18.651695-27.584698 24.771491-33.704495l67.678952-89.957469c1.185978-1.57696 2.429673-2.965876 3.703157-4.153716 1.318167-1.2288 2.777833-2.360785 4.345483-3.375476l21.178182-13.708568-0.960698 25.151302c-0.379811 9.979345 3.109236 19.349876 9.216 26.512291 6.049047 7.091665 14.693469 12.032931 24.711913 13.254284 3.435055 0.420771 6.743505 0.394705 9.863913-0.026066 3.304727-0.444975 6.49216-1.312582 9.485963-2.545105l20.375738-8.389353L651.822545 445.328291c-0.303476 2.807622-0.966284 5.57056-2.005178 8.203171v0.052131c-0.981178 2.481804-2.368233 4.954298-4.168611 7.348596l-67.678952 89.957469c-1.362851 1.813411-2.789004 3.371753-4.243084 4.663855z m-1.696116-40.299055l41.073571-54.594094-1.820859-0.189906c-16.763811-2.046138-31.263651-10.347985-41.442211-22.284102a65.125655 65.125655 0 0 1-9.46176-14.712087l-38.005294 50.514851c16.34304 2.829964 30.327156 11.675462 39.945309 23.963462 4.081105 5.216815 7.369076 11.049891 9.711244 17.301876z" p-id="17616" fill="#FF6A00"></path><path d="M50.898385 415.075607" p-id="17617" fill="#FF6A00"></path><path d="M728.53504 730.648204c118.901295-118.901295 201.392873-251.378967 238.645993-369.446168 36.368756-115.267025 29.416727-216.011869-29.476306-274.904901-58.894895-58.893033-159.639738-65.846924-274.906763-29.478168-118.0672 37.25312-250.544873 119.744698-369.446168 238.645993C174.450502 414.366255 91.957062 546.845789 54.705804 664.912989c-36.368756 115.265164-29.414865 216.011869 29.478167 274.906764 58.893033 58.893033 159.639738 65.845062 274.904902 29.474443 118.0672-37.25312 250.544873-119.744698 369.446167-238.645992z m263.687447-361.544611c-38.450269 121.861585-123.192785 258.196945-245.113949 380.118109-121.921164 121.921164-258.256524 206.66368-380.118109 245.113949-124.66176 39.336495-234.974487 30.463069-301.379956-35.9424-66.403607-66.405469-75.280756-176.72192-35.946124-301.381818 38.448407-121.861585 123.192785-258.198807 245.113949-380.119971C396.699462 154.970298 533.034822 70.227782 654.896407 31.777513 779.560029-7.55712 889.872756 1.320029 956.278225 67.723636c66.403607 66.403607 75.278895 176.718196 35.944262 301.379957z" p-id="17618" fill="#FF6A00"></path><path d="M274.778298 749.221702C152.857135 627.300538 68.112756 490.963316 29.664349 369.101731-9.670284 244.439971-0.794996 134.127244 65.610473 67.721775 132.015942 1.318167 242.330531-7.55712 366.992291 31.777513c121.859724 38.450269 258.195084 123.192785 380.116247 245.113949 121.921164 121.921164 206.66368 258.256524 245.113949 380.116247 39.334633 124.66176 30.459345 234.976349-35.944262 301.381818-66.405469 66.405469-176.718196 75.280756-301.379956 35.946124-121.861585-38.448407-258.198807-123.192785-380.119971-245.113949zM54.705804 361.200175c37.251258 118.0672 119.744698 250.546735 238.645992 369.448029 118.901295 118.901295 251.380829 201.394735 369.448029 238.645992 115.265164 36.368756 216.010007 29.416727 274.904902-29.478167 58.893033-58.894895 65.845062-159.639738 29.476306-274.906764-37.25312-118.065338-119.744698-250.543011-238.645993-369.444305C609.633745 176.563665 477.156073 94.072087 359.090735 56.818967 243.823709 20.450211 143.078865 27.40224 84.183971 86.295273 25.289076 145.190167 18.337047 245.935011 54.705804 361.200175z" p-id="17619" fill="#FF6A00"></path><path d="M410.955404 783.698851h199.977891c1.51552 0 2.891404-0.610676 3.887476-1.593716a5.522897 5.522897 0 0 0 1.593716-3.887477v-39.1168c0-1.49504-0.621847-2.865338-1.61792-3.861411-0.997935-0.997935-2.368233-1.619782-3.863272-1.619782h-199.977891c-1.49504 0-2.865338 0.621847-3.863273 1.619782-0.996073 0.996073-1.61792 2.366371-1.61792 3.861411v39.1168c0 1.51552 0.610676 2.891404 1.593716 3.887477a5.522897 5.522897 0 0 0 3.887477 1.593716z m199.977891 26.273978h-199.977891c-8.709585 0-16.637207-3.570967-22.386502-9.3184l-0.050269-0.050269c-5.747433-5.749295-9.3184-13.676916-9.3184-22.386502v-39.1168c0-8.743098 3.570967-16.687476 9.3184-22.434909 5.749295-5.749295 13.693673-9.320262 22.436771-9.320262h199.977891c8.743098 0 16.687476 3.570967 22.43677 9.320262 5.747433 5.747433 9.3184 13.691811 9.3184 22.434909v39.1168c0 8.709585-3.570967 16.637207-9.3184 22.386502l-0.050269 0.050269c-5.749295 5.747433-13.676916 9.3184-22.386501 9.3184z" p-id="17620" fill="#FF6A00"></path><path d="M484.232844 707.345687h53.423011c1.51552 0 2.891404-0.610676 3.887476-1.593716a5.522897 5.522897 0 0 0 1.593716-3.887476v-107.30403a65.861818 65.861818 0 0 1-4.205847 2.209979c-8.542022 4.099724-18.04288 6.397207-27.986851 6.397207s-19.444829-2.297484-27.986851-6.397207a65.861818 65.861818 0 0 1-4.205847-2.209979v107.30403c0 1.51552 0.610676 2.891404 1.593716 3.887476a5.522897 5.522897 0 0 0 3.887477 1.593716z m53.423011 26.273978h-53.423011c-8.709585 0-16.637207-3.570967-22.386502-9.3184l-0.050269-0.050269c-5.747433-5.749295-9.3184-13.676916-9.3184-22.386501v-118.54755c0-4.032698 0.785687-7.935069 2.209978-11.548858a31.970211 31.970211 0 0 1 6.317149-10.025891l10.310749-11.103883 9.497135 11.822545c3.634269 4.524218 8.225513 8.205033 13.43488 10.705455 4.978502 2.388713 10.638429 3.72736 16.696785 3.72736 6.058356 0 11.718284-1.338647 16.696786-3.72736 5.209367-2.500422 9.800611-6.181236 13.43488-10.705455l9.497134-11.822545 10.310749 11.103883a31.970211 31.970211 0 0 1 6.317149 10.025891c1.424291 3.613789 2.209978 7.51616 2.209978 11.548858v118.54755c0 8.709585-3.570967 16.637207-9.3184 22.386501l-0.050269 0.050269c-5.749295 5.747433-13.676916 9.3184-22.386501 9.3184z" p-id="17621" fill="#FF6A00"></path><path d="M519.125178 473.508771c17.73568 2.163433 32.944873 11.349644 43.194182 24.443811 10.238138 13.084858 15.490327 30.051607 13.326895 47.785425-2.163433 17.73568-11.349644 32.944873-24.443811 43.194182-13.084858 10.238138-30.049745 15.490327-47.785426 13.326895-17.73568-2.163433-32.944873-11.347782-43.194182-24.445673-10.061265-12.859578-15.307869-29.466996-13.431156-46.871273l0.104262-0.916014c2.163433-17.73568 11.349644-32.944873 24.443811-43.190459 12.859578-10.064989 29.466996-15.309731 46.871272-13.431156l0.914153 0.104262z m22.565237 40.555985c-6.050909-7.732131-15.086313-13.170502-25.668888-14.481221l-0.080058-0.00931c-10.614225-1.295825-20.727622 1.815273-28.489542 7.890386-7.733993 6.050909-13.172364 15.088175-14.481222 25.672611l-0.009309 0.072611c-1.293964 10.616087 1.817135 20.729484 7.890386 28.491403 6.065804 7.752611 15.129135 13.198429 25.745222 14.492393 10.616087 1.293964 20.731345-1.817135 28.493265-7.890385 7.750749-6.065804 13.196567-15.129135 14.490531-25.745222 1.293964-10.616087-1.817135-20.731345-7.890385-28.493266zM626.081047 331.614022l0.914153 0.104262c17.73568 2.163433 32.944873 11.349644 43.190458 24.443811 10.064989 12.859578 15.309731 29.466996 13.431157 46.871272l-0.104262 0.914153c-2.163433 17.73568-11.349644 32.944873-24.443811 43.194182-13.084858 10.238138-30.049745 15.490327-47.785426 13.326894-17.737542-2.165295-32.948596-11.349644-43.194181-24.445672-10.24-13.082996-15.490327-30.046022-13.326895-47.783564 2.165295-17.73568 11.347782-32.946735 24.445673-43.196044 12.86144-10.063127 29.466996-15.306007 46.873134-13.429294z m23.475666 40.660247c-6.050909-7.733993-15.086313-13.172364-25.668888-14.481222l-0.076334-0.009309c-10.616087-1.293964-20.729484 1.815273-28.491404 7.888524-7.752611 6.065804-13.196567 15.132858-14.492392 25.747083-1.293964 10.616087 1.815273 20.729484 7.890385 28.491404 6.065804 7.752611 15.129135 13.196567 25.745222 14.492393 10.616087 1.293964 20.731345-1.817135 28.493265-7.890386 7.733993-6.052771 13.170502-15.088175 14.481222-25.672611l0.009309-0.076334c1.295825-10.614225-1.815273-20.727622-7.890385-28.489542zM421.992262 413.193309c8.547607 0 16.289047-3.464844 21.885673-9.061469 5.596625-5.596625 9.061469-13.338065 9.061469-21.885673 0-8.549469-3.464844-16.289047-9.061469-21.885672-5.596625-5.596625-13.338065-9.061469-21.885673-9.06147-8.549469 0-16.289047 3.464844-21.885673 9.06147-5.596625 5.596625-9.061469 13.336204-9.061469 21.885672 0 8.547607 3.464844 16.289047 9.061469 21.885673 5.596625 5.596625 13.336204 9.061469 21.885673 9.061469z m40.459171 9.512029c-10.355433 10.355433-24.663505 16.761949-40.459171 16.761949-15.797527 0-30.103738-6.406516-40.459171-16.761949-10.355433-10.355433-16.761949-24.663505-16.761949-40.459171 0-15.797527 6.406516-30.103738 16.761949-40.459171 10.355433-10.355433 24.661644-16.761949 40.459171-16.761949 15.795665 0 30.103738 6.406516 40.459171 16.761949 10.355433 10.355433 16.761949 24.661644 16.761949 40.459171 0 15.795665-6.406516 30.103738-16.761949 40.459171z" p-id="17622" fill="#FF6A00"></path><path d="M426.559302 325.89824c6.771433 2.520902 10.217658 10.059404 7.696756 16.830836-2.520902 6.771433-10.059404 10.217658-16.830836 7.696757l-60.036189-22.358575L291.746909 350.580364c-6.857076 2.351476-14.326691-1.301411-16.678167-8.158488-2.351476-6.857076 1.301411-14.326691 8.158487-16.678167l70.298531-24.106822 8.173382 0.107986 64.86016 24.153367zM281.058211 439.834065c-6.771433-2.520902-10.217658-10.059404-7.696756-16.830836 2.520902-6.771433 10.059404-10.217658 16.830836-7.696756l60.036189 22.358574 65.642124-22.513105c6.857076-2.351476 14.326691 1.301411 16.678167 8.158487 2.351476 6.857076-1.301411 14.326691-8.158487 16.678167l-70.296669 24.108684-8.173382-0.107985-64.862022-24.15523z" p-id="17623" fill="#FF6A00"></path></svg>