<?xml version="1.0" standalone="no"?><!DOCTYPE svg PUBLIC "-//W3C//DTD SVG 1.1//EN" "http://www.w3.org/Graphics/SVG/1.1/DTD/svg11.dtd"><svg t="1699259107961" class="icon" viewBox="0 0 1024 1024" version="1.1" xmlns="http://www.w3.org/2000/svg" p-id="5722" xmlns:xlink="http://www.w3.org/1999/xlink" width="200" height="200"><path d="M678.94 936.137c3.993 0 7.987-1.597 11.182-3.993h0.798c47.926-41.536 75.083-101.442 75.083-165.342 0-120.612-98.246-219.657-218.858-219.657-120.611 0-218.858 98.247-218.858 219.657 0 62.303 26.359 121.41 72.686 162.945 3.195 3.195 8.787 3.994 11.982 3.994 5.591 0 9.585-2.396 11.981-4.792l0.799-0.8 0.799-0.798c3.195-3.195 5.59-8.786 4.792-13.579 0-4.792-2.396-9.585-5.591-12.78-38.34-35.145-60.705-83.869-60.705-135.788 0-47.925 18.37-94.252 52.717-128.599 34.347-35.145 79.875-53.516 128.6-53.516 100.642 0 182.914 82.271 182.914 182.914 0 52.718-23.164 102.24-62.303 137.385-7.988 6.39-8.786 17.573-1.598 25.56 2.397 4.793 7.19 7.19 13.58 7.19z m-429.73-351.45c86.266 0 156.556-70.29 156.556-156.556 0-86.265-70.29-156.555-156.555-156.555-85.467 0-155.757 70.29-155.757 156.555 0.799 87.064 70.29 156.555 155.757 156.555z m0-275.57c65.498 0 119.813 53.516 119.813 119.813 0 66.296-53.516 119.813-119.812 119.813-66.297 0-119.813-53.517-119.813-119.813 0-66.297 54.315-119.813 119.813-119.813z m259.595-108.63c47.126 0 84.668-38.34 84.668-84.668s-37.542-84.668-84.668-84.668c-47.126 0-84.668 38.34-84.668 84.668s37.542 84.668 84.668 84.668z m0-133.392c26.359 0 47.925 21.566 47.925 47.925 0 26.36-21.566 47.925-47.925 47.925-26.359 0-47.925-21.566-47.925-47.925 0-26.359 21.566-47.925 47.925-47.925z" p-id="5723"></path><path d="M545.548 866.646c55.113 0 99.844-44.73 99.844-99.844s-44.73-99.844-99.844-99.844-99.844 44.73-99.844 99.844c0.798 55.114 45.528 99.844 99.844 99.844z m0-162.946c34.346 0 63.101 27.957 63.101 63.102 0 35.145-27.956 63.101-63.101 63.101-35.146 0-63.102-27.956-63.102-63.101 0.799-34.346 29.554-63.102 63.102-63.102zM345.06 785.173c3.195 0 5.591-0.799 7.189-1.597l2.396-0.8 0.799-0.798c3.993-2.396 7.188-7.189 7.188-11.981 0.8-4.793-0.798-9.585-3.195-13.579L211.67 546.346c-3.993-4.792-9.585-7.987-15.176-7.987-3.195 0-5.591 0.799-7.189 1.597l-2.396 0.8-0.799 0.798c-3.994 2.396-7.189 7.189-7.189 11.981-0.798 4.793 0.8 9.585 3.195 13.579l147.77 210.072c3.195 5.59 8.786 7.987 15.176 7.987z m278.764-186.109c4.793 0 10.384-2.396 14.378-6.39l0.799-0.799c2.396-3.994 3.993-7.987 3.993-11.981 0-5.591-2.396-10.384-7.188-13.579l-235.632-185.31c-3.994-2.397-7.988-3.994-11.183-3.994-4.792 0-10.384 2.396-14.377 6.39l-0.8 0.799-0.798 0.798c-2.396 3.994-3.994 7.988-3.994 11.982 0 5.591 2.397 10.383 7.19 13.579l236.43 184.511c3.994 3.195 7.987 3.994 11.182 3.994zM249.211 495.226c36.742 0 67.095-30.352 67.095-67.095 0-36.743-30.353-67.095-67.095-67.095-36.743 0-67.096 30.352-67.096 67.095 0 36.743 30.353 67.095 67.096 67.095z m0-96.649c16.773 0 29.553 13.579 29.553 29.554 0 15.975-13.578 29.554-29.553 29.554-16.774 0-29.554-13.579-29.554-29.554 0-15.975 13.579-29.554 29.554-29.554zM173.329 204.48c49.523 0 89.46-39.937 89.46-89.46 0-48.724-39.937-88.661-89.46-88.661-49.522 0-89.46 39.937-89.46 89.46 0 48.724 39.938 88.661 89.46 88.661z m0-141.379c28.755 0 52.718 23.963 52.718 52.718 0 28.755-23.963 52.718-52.718 52.718-28.755 0-52.717-23.963-52.717-52.718 0-28.755 23.962-52.718 52.717-52.718z" p-id="5724"></path><path d="M123.807 392.187c10.383 0 18.37-7.987 18.37-19.17L128.6 150.165c0-9.585-7.987-17.572-18.371-17.572-5.591 0-10.384 2.396-13.579 6.39-3.195 3.994-4.793 8.786-3.994 13.579l13.579 222.053c-0.799 10.383 7.189 17.572 17.573 17.572z m170.932-83.07c3.994 0 7.988-1.597 8.787-2.396h1.597c3.994-2.397 6.39-6.39 7.988-10.384 1.597-4.793 0.799-10.384-1.598-14.378l-65.497-115.02c-2.397-5.591-9.585-9.585-15.975-9.585-3.994 0-7.988 1.598-8.787 2.396h-1.597c-3.994 2.397-6.39 6.39-7.988 10.384-1.597 4.793-0.798 10.384 1.598 14.378l65.497 115.02c3.994 6.39 9.585 9.585 15.975 9.585zM455.29 89.46c9.585 0 18.37-7.987 18.37-18.371 0-9.585-7.987-18.371-18.37-18.371h-211.67c-9.585 0-18.371 7.987-18.371 18.37 0 9.586 7.988 18.372 18.371 18.372h211.67z" p-id="5725"></path><path d="M439.314 165.342c9.585 0 18.37-7.988 18.37-18.372 0-9.585-7.987-18.37-18.37-18.37H250.808c-9.585 0-18.371 7.987-18.371 18.37 0 9.585 7.987 18.372 18.371 18.372h188.506z m210.87-35.145c9.585 0 18.371-7.988 18.371-18.372 0-9.585-7.987-18.371-18.37-18.371h-67.096c-9.585 0-18.371 7.987-18.371 18.371 0 9.585 7.987 18.372 18.37 18.372h67.096z" p-id="5726"></path><path d="M921.76 1023.201c9.585 0 18.371-7.987 18.371-18.371v-84.668c0-9.585-7.987-18.371-18.371-18.371H165.342c-9.585 0-18.372 7.987-18.372 18.371v84.668c0 9.585 7.988 18.371 18.372 18.371H921.76zM184.512 985.66v-48.724h718.876v48.724H184.512z m559.925-758.016c24.761 0 47.925-7.987 68.692-22.365 4.793-3.195 7.19-7.987 7.19-13.579 0-3.993 0-8.786-4.793-13.578-3.195-3.195-7.189-6.39-14.378-6.39-3.994 0-8.786 1.597-11.182 3.993-14.378 10.384-29.554 15.177-46.328 15.177-42.334 0-75.881-34.347-75.881-75.882 0-42.334 35.145-77.479 76.68-77.479 18.371 0 35.145 5.592 48.724 16.774 3.993 3.994 8.786 3.994 11.182 3.994 5.591 0 11.183-3.195 14.378-7.189 2.396-3.994 3.994-7.987 3.994-11.981 0-5.591-2.397-10.384-7.19-13.579C795.558 8.786 770.796 0.8 743.639 0.8c-62.303 0-113.423 51.12-113.423 113.423 1.598 62.302 52.718 113.422 114.222 113.422z" p-id="5727"></path></svg>